<svg width="24" height="20" viewBox="0 0 24 20" fill="none" xmlns="http://www.w3.org/2000/svg">
<path d="M12.4978 10.9589C12.5427 10.1585 12.9346 9.45321 13.526 8.95328C14.106 8.46223 14.8865 8.16211 15.7383 8.16211C16.5891 8.16211 17.3697 8.46223 17.9501 8.95328C18.541 9.45321 18.933 10.1584 18.9783 10.9581C19.0232 11.7806 18.6926 12.5447 18.1126 13.1111C17.5213 13.6872 16.6801 14.0487 15.7383 14.0487C14.7964 14.0487 13.9536 13.6872 13.3626 13.1111C12.7822 12.5447 12.4525 11.7806 12.4978 10.9589Z" fill="white"/>
<path d="M7.35101 12.5793C7.35651 12.8925 7.45641 13.5013 7.60627 13.9766C7.92121 14.9829 8.45543 15.9137 9.19877 16.7341C9.96158 17.5773 10.9009 18.2546 11.9859 18.7355C13.1263 19.2405 14.3619 19.4979 15.6454 19.4958C16.9268 19.4941 18.1624 19.2316 19.3029 18.7228C20.3878 18.2373 21.3263 17.557 22.0878 16.7134C22.8307 15.8896 23.3641 14.957 23.6799 13.9508C23.8387 13.4424 23.939 12.9264 23.9792 12.4087C24.0186 11.8986 24.0021 11.3877 23.9297 10.8771C23.7883 9.88235 23.4441 8.94894 22.9141 8.09808C22.4294 7.31622 21.8046 6.63173 21.0617 6.0556L21.0634 6.05432L13.5661 0.297687C13.5593 0.292607 13.5538 0.287113 13.5466 0.282456C13.0547 -0.0951393 12.2276 -0.0938673 11.6866 0.284575C11.1397 0.66725 11.077 1.3001 11.5638 1.69928L11.5617 1.7014L14.6887 4.24424L5.15782 4.2544C5.15316 4.2544 5.14851 4.2544 5.14512 4.2544C4.35734 4.25525 3.60003 4.77211 3.45017 5.42528C3.29609 6.09073 3.83115 6.64273 4.65027 6.64569L4.649 6.64867L9.47985 6.63935L0.859491 13.2562C0.848484 13.2642 0.83663 13.2727 0.826471 13.2807C0.0132852 13.9034 -0.249586 14.9388 0.262623 15.5941C0.782452 16.2604 1.88772 16.2617 2.70938 15.5979L7.41408 11.7475C7.41408 11.7475 7.34551 12.2673 7.35101 12.5793ZM19.4404 14.3199C18.471 15.3075 17.1139 15.8676 15.6454 15.8705C14.1748 15.8731 12.8177 15.3181 11.8483 14.3322C11.3746 13.8518 11.0266 13.2989 10.812 12.7101C10.6016 12.1314 10.5199 11.5172 10.5741 10.8975C10.6253 10.2917 10.8057 9.71387 11.0935 9.19108C11.3763 8.67718 11.7657 8.21281 12.2466 7.81997C13.1889 7.05208 14.3886 6.63638 15.6433 6.63469C16.8993 6.633 18.0981 7.04488 19.0412 7.81023C19.5213 8.20137 19.9103 8.66406 20.1931 9.17711C20.4822 9.69948 20.6613 10.2752 20.7146 10.8826C20.7679 11.5015 20.6862 12.1149 20.4759 12.694C20.2608 13.2845 19.9141 13.8374 19.4404 14.3199Z" fill="white"/>
</svg>
