<svg width="24" height="24" viewBox="0 0 24 24" fill="none" xmlns="http://www.w3.org/2000/svg">
<path d="M23.9596 7.0377C23.9594 6.6352 23.8626 6.27953 23.6667 5.97428C23.4743 5.67411 23.1862 5.42253 22.7998 5.22361C19.61 3.5887 16.417 1.95878 13.2282 0.322198C12.3685 -0.118969 11.535 -0.102885 10.6817 0.344615C9.41203 1.0102 3.05531 4.24745 1.16109 5.2227C0.381 5.62411 0.00140625 6.23845 0.00121875 7.03695C0 10.3249 0.00121875 13.6127 0 16.9007C0 17.2944 0.0929062 17.6431 0.280125 17.9438C0.472594 18.253 0.764719 18.5115 1.16006 18.7149C3.05437 19.6902 9.41194 22.9272 10.6813 23.5929C11.535 24.0407 12.3685 24.0567 13.2285 23.6154C16.4174 21.9787 19.6105 20.3489 22.8008 18.7139C23.1962 18.5106 23.4883 18.2519 23.6808 17.9429C23.8677 17.6423 23.9608 17.2935 23.9608 16.8998C23.9608 16.8998 23.9608 10.3257 23.9596 7.0377Z" fill="#0EBFE9"/>
<path d="M12.0172 11.9368L0.280273 17.9438C0.472742 18.253 0.764867 18.5115 1.16021 18.7149C3.05452 19.6902 9.41209 22.9272 10.6815 23.5929C11.5351 24.0407 12.3687 24.0567 13.2286 23.6153C16.4176 21.9787 19.6107 20.3488 22.801 18.7139C23.1963 18.5106 23.4885 18.2519 23.6809 17.9429L12.0172 11.9368Z" fill="#0EBFE9"/>
<path d="M23.9596 7.03766C23.9594 6.63516 23.8626 6.27949 23.6667 5.97424L12.0171 11.9367L23.6808 17.9429C23.8677 17.6422 23.9607 17.2935 23.9608 16.8997C23.9608 16.8997 23.9608 10.3257 23.9596 7.03766Z" fill="#0EBFE9"/>
<path d="M18.9275 9.69116V10.814H20.1906V9.69116H20.8222V10.814H22.0853V11.3754H20.8222V12.4982H22.0853V13.0596H20.8222V14.1824H20.1906V13.0596H18.9275V14.1824H18.2959V13.0596H17.0327V12.4982H18.2959V11.3754H17.0327V10.814H18.2959V9.69116H18.9275ZM20.1906 11.3754H18.9275V12.4982H20.1906V11.3754Z" fill="white"/>
<path d="M12.043 4.05212C15.3377 4.05212 18.2143 5.64265 19.7551 8.0068L19.74 7.98404L15.8636 9.96806C15.0999 8.8186 13.6997 8.04289 12.0936 8.02692L12.043 8.02666C9.59375 8.02666 7.60808 9.79161 7.60808 11.9687C7.60808 12.6807 7.82162 13.3481 8.19298 13.9245C8.95743 15.1108 10.3945 15.9109 12.043 15.9109C13.7017 15.9109 15.147 15.1006 15.9075 13.9017L15.8891 13.9305L19.7597 15.9236C18.2358 18.2678 15.3987 19.8534 12.1422 19.885L12.043 19.8855C8.7379 19.8855 5.85315 18.2851 4.31629 15.9085C3.56601 14.7482 3.13672 13.4031 3.13672 11.9687C3.13672 7.59657 7.12412 4.05212 12.043 4.05212Z" fill="white"/>
</svg>
