<svg width="247" height="247" viewBox="0 0 247 247" fill="none" xmlns="http://www.w3.org/2000/svg">
<g id="earth">
<path id="Vector" d="M123.056 241.138C187.782 241.138 240.252 188.668 240.252 123.942C240.252 59.217 187.782 6.74664 123.056 6.74664C58.3309 6.74664 5.86053 59.217 5.86053 123.942C5.86053 188.668 58.3309 241.138 123.056 241.138Z" fill="#C6ECF6"/>
<g id="Group">
<path id="Vector_2" d="M123.056 6.74841C120.765 6.74841 118.491 6.82166 116.233 6.95115V39.9692C116.233 45.46 118.429 50.7223 122.333 54.5842L133.134 65.2669C136.982 69.0726 142.176 71.2077 147.589 71.2077H165.844C169.624 71.2077 173.221 72.8425 175.706 75.6913L202.277 106.137C203.232 107.232 204.614 107.86 206.068 107.86H214.743C217.521 107.86 219.774 110.112 219.774 112.891V125.102C219.774 126.436 220.305 127.716 221.248 128.659L237.523 144.935L238.227 145.699C239.551 138.649 240.251 131.379 240.251 123.944C240.252 59.2183 187.782 6.74841 123.056 6.74841Z" fill="#BDED7E"/>
<path id="Vector_3" d="M5.86053 123.944C5.86053 144.036 10.9201 162.945 19.8298 179.473C22.7109 177.587 24.7253 176.245 24.7253 176.245L38.0477 152.912C39.9848 149.52 43.5918 147.426 47.4977 147.426H64.1904C67.0761 147.426 69.8446 146.279 71.8855 144.239L88.5723 127.552C90.9407 125.184 92.2707 121.971 92.2707 118.622V103.383C92.2707 96.4088 86.6165 90.7545 79.6421 90.7545H54.4744C47.5 90.7545 41.8457 85.1003 41.8457 78.1259V39.4524C19.6663 60.7763 5.86053 90.7463 5.86053 123.944Z" fill="#BDED7E"/>
<path id="Vector_4" d="M233.387 163.541L232.216 162.503L198.452 166.725L187.856 197.275C186.22 201.992 181.776 205.154 176.784 205.154C172.479 205.154 168.521 202.794 166.475 199.006L156.939 181.359C154.323 176.517 149.262 173.5 143.759 173.5C131.486 173.5 119.717 178.375 111.04 187.052L105.607 192.485C100.871 197.221 99.8539 204.526 103.116 210.375L120.25 241.103L120.253 241.104C121.185 241.125 122.12 241.139 123.058 241.139C173.884 241.139 217.148 208.78 233.387 163.541Z" fill="#BDED7E"/>
</g>
<path id="Vector_5" d="M225.046 55.0682C223.233 52.3875 219.59 51.685 216.909 53.4984C214.229 55.3119 213.526 58.9553 215.339 61.6353C227.804 80.0589 234.393 101.605 234.393 123.944C234.393 127.038 234.26 130.102 234.011 133.133L225.636 124.758V112.891C225.636 106.885 220.75 102 214.745 102H206.446L180.123 71.8376C176.523 67.7126 171.32 65.3478 165.845 65.3478H147.59C143.695 65.3478 140.025 63.8396 137.256 61.0998L126.453 50.4176C123.682 47.6766 122.092 43.868 122.092 39.9692V12.6207C122.413 12.6177 122.733 12.6084 123.056 12.6084C144.283 12.6084 164.921 18.6019 182.74 29.9403C185.471 31.6765 189.092 30.8725 190.83 28.1427C192.567 25.4122 191.762 21.7906 189.032 20.0527C169.33 7.51483 146.516 0.888489 123.057 0.888489C121.149 0.888489 119.252 0.938294 117.364 1.02501C116.998 0.953529 114.411 1.18497 114.442 1.19493C50.593 5.63163 0.000999451 58.9869 0.000999451 123.944C0.000999451 191.797 55.2037 246.999 123.057 246.999C190.91 246.999 246.113 191.797 246.113 123.944C246.112 99.2547 238.828 75.4376 225.046 55.0682ZM35.9868 54.641V78.1271C35.9868 88.3212 44.2807 96.6145 54.4748 96.6145H79.6425C83.3743 96.6145 86.4112 99.6508 86.4112 103.383V118.622C86.4112 120.43 85.7069 122.13 84.429 123.409L67.7421 140.096C66.7935 141.044 65.5326 141.567 64.1908 141.567H47.4975C41.5022 141.567 35.9317 144.801 32.9587 150.007L21.6302 169.848C15.2675 155.844 11.7209 140.301 11.7209 123.944C11.7203 97.7647 20.8081 73.6716 35.9868 54.641ZM27.67 181.308C28.5337 180.806 29.2825 180.08 29.8134 179.15L43.1358 155.818C44.0276 154.256 45.6987 153.286 47.4975 153.286H64.1902C68.6626 153.286 72.8667 151.545 76.0284 148.382L92.7153 131.696C96.2069 128.204 98.1305 123.561 98.1305 118.622V103.383C98.1305 93.1891 89.8366 84.8952 79.6425 84.8952H54.4748C50.743 84.8952 47.7061 81.8589 47.7061 78.1271V42.0581C64.6174 26.4845 86.3456 16.0718 110.373 13.3343V39.968C110.373 46.9758 113.23 53.8219 118.213 58.749L129.013 69.4312C133.991 74.3548 140.587 77.0659 147.589 77.0659H165.844C167.932 77.0659 169.919 77.9683 171.292 79.5421L197.863 109.988C199.931 112.359 202.922 113.718 206.068 113.718H213.915V125.1C213.915 128.009 215.048 130.744 217.105 132.801L231.862 147.559C231.172 150.74 230.353 153.875 229.396 156.95L197.723 160.909C195.509 161.186 193.645 162.696 192.913 164.803L182.318 195.354C181.5 197.71 179.276 199.294 176.782 199.294C174.627 199.294 172.652 198.116 171.627 196.22L162.092 178.573C158.448 171.829 151.422 167.64 143.756 167.64C129.831 167.64 116.74 173.063 106.893 182.909L101.46 188.341C94.9043 194.897 93.4793 205.131 97.9946 213.228L109.852 234.493C74.9937 230.356 45.0225 210.053 27.67 181.308ZM123.707 235.272L108.233 207.521C106.257 203.978 106.881 199.498 109.75 196.629L115.183 191.196C122.815 183.563 132.964 179.359 143.758 179.359C147.114 179.359 150.189 181.192 151.783 184.145L161.318 201.792C164.392 207.48 170.318 211.014 176.784 211.014C184.266 211.014 190.941 206.264 193.392 199.195L202.793 172.087L224.705 169.348C207.38 207.983 168.657 235.013 123.707 235.272Z" fill="#252525"/>
<path id="Vector_6" d="M209.502 36.4384C209.672 36.569 209.837 36.7067 209.995 36.8591C209.836 36.7079 209.672 36.5684 209.502 36.4384Z" fill="black"/>
<path id="Vector_7" d="M201.783 45.2174C201.804 45.2379 201.824 45.2584 201.845 45.2789L201.964 45.3984C203.11 46.5516 204.615 47.1287 206.122 47.1287C207.615 47.1287 209.108 46.5615 210.252 45.4266C212.547 43.1461 212.56 39.4354 210.28 37.1397C210.233 37.0922 210.186 37.0459 210.139 37.0008C210.102 36.9616 210.064 36.9229 210.026 36.8842L210.026 36.8848C210.016 36.8754 210.004 36.8678 209.995 36.8584C210.005 36.8678 210.016 36.8754 210.026 36.8848L210.021 36.8889C209.724 36.6135 209.424 36.3791 209.123 36.1752C209.004 36.0967 208.887 36.0118 208.763 35.9432C205.974 34.3008 203.143 35.437 201.73 36.8379C199.439 39.1084 199.44 42.8256 201.695 45.126C201.723 45.157 201.753 45.1869 201.783 45.2174Z" fill="#252525"/>
<path id="Vector_8" d="M209.159 36.2004C209.275 36.276 209.39 36.354 209.501 36.4389C209.391 36.3528 209.275 36.2772 209.159 36.2004Z" fill="black"/>
<path id="Vector_9" d="M209.044 36.1196C209.069 36.1366 209.096 36.1582 209.121 36.1758C209.134 36.184 209.147 36.1916 209.159 36.2004C209.12 36.1746 209.083 36.1442 209.044 36.1196Z" fill="black"/>
<path id="Vector_10" d="M85.113 61.5374H64.9943C61.7582 61.5374 59.1343 64.1606 59.1343 67.3974C59.1343 70.6341 61.7576 73.2573 64.9943 73.2573H85.113C88.3491 73.2573 90.9729 70.6341 90.9729 67.3974C90.9729 64.1606 88.3491 61.5374 85.113 61.5374Z" fill="black"/>
<path id="Vector_11" d="M104.305 73.2567C105.846 73.2567 107.357 72.6298 108.448 71.5399C109.538 70.4501 110.165 68.9384 110.165 67.3968C110.165 65.8552 109.538 64.3441 108.448 63.2537C107.358 62.1638 105.846 61.5369 104.305 61.5369C102.763 61.5369 101.252 62.1638 100.162 63.2537C99.0717 64.3435 98.4447 65.8552 98.4447 67.3968C98.4447 68.9384 99.0717 70.4495 100.162 71.5399C101.252 72.6292 102.764 73.2567 104.305 73.2567Z" fill="black"/>
</g>
</svg>
