<svg width="24" height="24" viewBox="0 0 24 24" fill="none" xmlns="http://www.w3.org/2000/svg">
<path fill-rule="evenodd" clip-rule="evenodd" d="M0 0V24H24V0H0ZM9.69107 22.1196C11.6893 22.1196 13.0607 21.0536 13.0607 18.7179V11.0196H10.8054V18.6857C10.8054 19.8161 10.3339 20.1054 9.59464 20.1054C8.81786 20.1054 8.49643 19.575 8.14286 18.9482L6.30536 20.0571C6.84107 21.1875 7.88571 22.1196 9.69107 22.1196ZM14.2875 19.8161C14.9464 21.1232 16.3018 22.1196 18.3964 22.1196C20.5339 22.1196 22.1304 21.0054 22.1304 18.9804C22.1304 17.0946 21.0536 16.2536 19.1357 15.4339L18.5732 15.1929C17.6036 14.7696 17.1857 14.4964 17.1857 13.8214C17.1857 13.275 17.6036 12.8571 18.2625 12.8571C18.9107 12.8571 19.3286 13.1304 19.7143 13.8214L21.4714 12.6964C20.7321 11.3893 19.7036 10.8911 18.2679 10.8911C16.2589 10.8911 14.9679 12.1768 14.9679 13.8696C14.9679 15.7071 16.0446 16.5804 17.6732 17.2714L18.2357 17.5125C19.2696 17.9679 19.8804 18.2411 19.8804 19.0125C19.8804 19.6607 19.2804 20.1268 18.3482 20.1268C17.2393 20.1268 16.6071 19.5429 16.125 18.7554L14.2875 19.8161Z" fill="white"/>
</svg>
