<svg width="97" height="97" viewBox="0 0 97 97" fill="none" xmlns="http://www.w3.org/2000/svg">
<g id="moon">
<g id="earth-moon">
<path id="Vector" d="M48.9715 90.2188C72.2725 90.2188 91.1617 71.3296 91.1617 48.0285C91.1617 24.7275 72.2725 5.83826 48.9715 5.83826C25.6704 5.83826 6.78122 24.7275 6.78122 48.0285C6.78122 71.3296 25.6704 90.2188 48.9715 90.2188Z" fill="#FFE5BB"/>
<g id="Group">
<path id="Vector_2" d="M67.1659 82.6877C76.2598 82.6877 83.6319 75.3157 83.6319 66.2218C83.6319 57.1279 76.2598 49.7558 67.1659 49.7558C58.072 49.7558 50.7 57.1279 50.7 66.2218C50.7 75.3157 58.072 82.6877 67.1659 82.6877Z" fill="#FFD189"/>
<path id="Vector_3" d="M9.19641 33.9391C9.56203 34.392 9.95402 34.8309 10.3753 35.2522C16.8048 41.6816 27.2292 41.6816 33.6586 35.2522C40.0881 28.8227 40.0881 18.3983 33.6586 11.9689C32.843 11.1532 31.9624 10.4419 31.0342 9.83313C26.73 11.854 22.6952 14.639 19.1391 18.195C14.5401 22.794 11.2278 28.1911 9.19641 33.9391Z" fill="#FFD189"/>
</g>
<path id="moon-outline" d="M48.9715 96.0557C61.2767 96.0557 73.5807 91.3717 82.9481 82.0044C101.683 63.2697 101.683 32.7858 82.9481 14.0505C64.2128 -4.68416 33.7301 -4.68416 14.9943 14.0505C-3.74044 32.7852 -3.74044 63.2691 14.9943 82.0044C24.3628 91.3723 36.6668 96.0557 48.9715 96.0557ZM59.6648 73.7175C55.5298 69.5825 55.5298 62.856 59.6648 58.7216C61.732 56.6545 64.4478 55.6209 67.163 55.6209C69.8782 55.6209 72.594 56.6545 74.6606 58.7216C78.7956 62.8566 78.7956 69.5831 74.6606 73.7175C70.5269 77.8524 63.7997 77.8518 59.6648 73.7175ZM23.2823 22.3386C25.4163 20.2046 27.7559 18.3976 30.2327 16.9064C33.6328 21.0677 33.3944 27.2288 29.5161 31.1083C28.97 31.6538 28.3688 32.1389 27.7272 32.5497C25.0032 34.2963 24.2116 37.9215 25.9577 40.6455C27.0768 42.3905 28.9659 43.3426 30.8959 43.3426C31.9787 43.3426 33.0745 43.0426 34.0535 42.4151C35.4006 41.5508 36.6615 40.5354 37.8018 39.3957C45.0732 32.1237 46.2644 21.0448 41.3859 12.5189C43.8844 11.9892 46.4273 11.715 48.9709 11.715C58.2744 11.715 67.5772 15.2558 74.66 22.3386C82.9469 30.6255 86.3781 41.9516 84.9684 52.7627C84.3555 51.9529 83.6852 51.173 82.9475 50.4348C74.2434 41.7313 60.082 41.7307 51.3773 50.4348C42.6732 59.1388 42.6732 73.3009 51.3773 82.0049C52.1156 82.7432 52.8955 83.413 53.7052 84.0258C42.8953 85.435 31.5686 82.0044 23.2811 73.7175C9.11673 59.5531 9.11673 36.5042 23.2823 22.3386Z" fill="#252525"/>
</g>
</g>
</svg>
