<svg width="499" height="764" viewBox="0 0 499 764" fill="none" xmlns="http://www.w3.org/2000/svg">
<g id="me">
<g id="neck">
<path d="M410.5 336.5C411.3 322.1 405.167 306.167 402 300L243 336.5L232.5 404.5L229 431C194.6 523 259.167 565.167 290 563C359.5 548 393 471.667 432 404.5L426 385.5L402 376.5C404.8 354.9 408.333 341.333 410.5 336.5Z" fill="#FFDBAC"/>
<path d="M410.5 336.5C411.3 322.1 405.167 306.167 402 300L243 336.5L232.5 404.5L229 431C194.6 523 259.167 565.167 290 563C359.5 548 393 471.667 432 404.5L426 385.5L402 376.5C404.8 354.9 408.333 341.333 410.5 336.5Z" fill="#E3C399"/>
<path d="M410.5 336.5C411.3 322.1 405.167 306.167 402 300L243 336.5L232.5 404.5L229 431C194.6 523 259.167 565.167 290 563C359.5 548 393 471.667 432 404.5L426 385.5L402 376.5C404.8 354.9 408.333 341.333 410.5 336.5Z" stroke="black" stroke-width="2"/>
</g>
<path id="sweater" d="M422 392L401.5 378.5C401.274 376.693 401.628 373.462 402.326 369.5H406.5C456.5 389.1 488.333 406 498 412V762.5H1.99997C1.59997 736.1 12.5001 687.5 18.0001 666.5V620C13.5003 596 22.9999 588 22.4999 582.5C22.0999 578.1 25.3332 550.333 26.9999 537C26.9999 534.333 27.6999 526.6 30.4999 517C33.2999 507.4 52.6666 473.667 61.9999 458C62.7999 450.8 156.333 421.333 203 407.5L235 392L228 434.5C216 490.5 251.5 524 272 529C292.5 534 316.5 533 374.5 472C420.9 423.2 425.5 398.333 422 392Z" fill="#8D8C8A" stroke="black" stroke-width="2"/>
<g id="my-head">
<path id="head" d="M174 195.5C184 164.3 178 151 184 136.5C190 122 214 114 214 114C230.333 109 271.6 101.4 306 111C340.4 120.6 352 157.333 353.5 174.5C400.7 212.1 401.833 254.5 396.5 271L411.5 280C417 242 433.5 246 445 235C456.5 224 471 244.5 449.5 296C432.3 337.2 413.333 337.833 406 333C400.4 355.8 385.667 373.167 379 379C265.8 449.8 219.833 435.5 211 419.5C142 282.5 161.5 234.5 174 195.5Z" fill="#FFDBAC" stroke="black" stroke-width="2"/>
<path id="hair" d="M156 146.5L172 200C191 149.5 153 118 253.5 106.5C333.9 97.3 354 150.833 354 177C373.241 188.347 384.138 203.146 391 217.5C400.829 238.06 401.444 258.232 398.5 270.5L411 277.5C412.6 247.9 436.5 239.5 436.5 239.5C436.5 239.5 448.333 229.5 451.5 230.5C484 109 445.5 93.5 390 43.5C345.6 3.49999 277.167 -0.833344 248.5 1.99999C220.833 1.33332 161.9 14.2 147.5 71C133.1 127.8 145.167 157 153 164.5C148.2 158.1 153 149.833 156 146.5Z" fill="#533519" stroke="black" stroke-width="2"/>
</g>
</g>
</svg>
