<svg width="24" height="24" viewBox="0 0 24 24" fill="none" xmlns="http://www.w3.org/2000/svg">
<path d="M0.998535 1.64166H22.9585V23.0017H0.998535V1.64166Z" fill="url(#paint0_radial)"/>
<path d="M0.998399 1.64159H22.9584V23.0016H0.998399V1.64159ZM0 24H23.952V0.643188H0V24ZM16.152 10.2288C15.3648 10.2288 15.096 10.6272 15.096 10.9584C15.096 11.3184 15.2736 11.568 16.3344 12.1152C17.8992 12.8736 18.3888 13.6032 18.3888 14.6688C18.3888 16.2672 17.1696 17.1264 15.5232 17.1264C14.6544 17.1264 13.9056 16.9488 13.4784 16.6992C13.4064 16.6704 13.3968 16.6176 13.3968 16.5408V15.0672C13.3968 14.9664 13.4448 14.9376 13.5168 14.9856C14.1456 15.3936 14.8656 15.576 15.5232 15.576C16.3104 15.576 16.6416 15.2448 16.6416 14.7984C16.6416 14.4384 16.4112 14.1216 15.4032 13.5984C13.9872 12.9216 13.3968 12.2352 13.3968 11.0832C13.3968 9.79679 14.4048 8.72639 16.152 8.72639C17.0112 8.72639 17.6112 8.85599 17.9376 9.00479C18.0192 9.05279 18.0384 9.13439 18.0384 9.20639V10.5744C18.0384 10.656 17.9904 10.704 17.8896 10.6752C17.448 10.3968 16.8 10.2288 16.152 10.2288ZM7.5696 11.4144C7.8 11.4336 7.9776 11.4336 8.376 11.4336C9.5424 11.4336 10.6416 11.0256 10.6416 9.43679C10.6416 8.16959 9.8544 7.53119 8.5248 7.53119C8.1264 7.53119 7.7472 7.55039 7.5648 7.55999L7.5696 11.4144ZM5.7888 6.11519C5.7888 6.04319 5.928 5.99519 6.0096 5.99519C6.648 5.96639 7.5984 5.94719 8.5824 5.94719C11.3472 5.94719 12.4272 7.46399 12.4272 9.39839C12.4272 11.9328 10.5888 13.0224 8.3328 13.0224C7.9536 13.0224 7.824 13.0032 7.5552 13.0032V16.8336C7.5552 16.9152 7.5264 16.9536 7.4352 16.9536H5.9088C5.8272 16.9536 5.7888 16.9248 5.7888 16.8336V6.11519Z" fill="#0EBFE9"/>
<defs>
<radialGradient id="paint0_radial" cx="0" cy="0" r="1" gradientUnits="userSpaceOnUse" gradientTransform="translate(8.23632 6.43394) scale(16.6871 16.1562)">
<stop stop-color="#34364E" stop-opacity="0.98"/>
<stop offset="1" stop-color="#0C0824"/>
</radialGradient>
</defs>
</svg>
