<svg width="24" height="24" viewBox="0 0 24 24" fill="none" xmlns="http://www.w3.org/2000/svg">
<path d="M7.37531 14.6645C6.93937 14.9026 6.28256 15.2885 5.77444 15.7082C4.94025 16.3965 4.76569 17.3513 5.20575 17.5743C5.61281 17.7805 6.56316 17.5352 7.24331 16.887C7.95713 16.2065 8.2515 15.3438 7.94747 14.3645C7.91175 14.3831 7.87669 14.4018 7.84228 14.4191L7.84303 14.4204L7.79691 14.4433C7.61944 14.5358 7.47441 14.6122 7.37531 14.6645ZM19.6257 14.3555C19.3788 14.8243 19.3664 14.9752 19.4414 15.0222C19.7997 14.9097 20.3925 14.6386 20.3972 13.9123C20.3979 13.8036 20.3705 13.6868 20.3264 13.5649C19.9433 13.8612 19.7226 14.1715 19.6257 14.3555ZM23.4704 12.9378C22.5132 12.8404 21.7663 12.9577 21.1867 13.1687C21.294 13.4128 21.3765 13.667 21.3881 13.9232C21.415 14.4853 20.9722 14.9013 20.5106 15.1983C20.2411 15.3715 19.9543 15.4869 19.7136 15.5566C19.5211 15.6276 19.2653 15.7009 19.0837 15.6685C18.6833 15.5974 18.4703 15.2867 18.7426 14.6014C18.8897 14.2305 19.314 13.6659 19.9989 13.1796C19.8428 12.8988 19.6688 12.6127 19.5802 12.3498C19.4054 11.8316 19.3526 11.5184 19.3526 11.5184C19.3526 11.5184 18.7881 12.5411 18.0597 13.4711C18.0177 13.5251 17.9758 13.5781 17.9338 13.631C18.0769 13.9214 18.1896 14.2286 18.2048 14.5383C18.2317 15.1004 17.9531 15.5254 17.4909 15.8218C17.2407 15.983 16.9738 16.0943 16.7448 16.1651C16.5983 16.221 16.3005 16.3129 15.8769 16.3377C15.6453 16.3515 15.4224 16.339 15.298 16.2566C15.1268 16.1435 15.1061 16.004 15.1948 15.8134C15.2698 15.6516 15.8309 15.092 16.3013 14.602C16.4313 14.4667 16.555 14.3284 16.6658 14.2004L16.663 14.1949C16.663 14.195 16.7483 14.0989 16.8865 13.9311C16.7146 13.6076 16.4966 13.2709 16.3942 12.9655C16.2194 12.4474 16.1665 12.134 16.1665 12.134C16.1665 12.134 15.5943 13.4159 14.9981 14.4391C14.5368 15.2316 14.2286 15.7118 14.0898 15.9223L14.0884 15.9307C14.0884 15.9307 14.0677 15.9614 14.0319 16.0095L14.0052 16.0485L14.0045 16.0449C13.8497 16.2446 13.5024 16.6359 13.1572 16.6359C12.2096 16.6359 12.5575 14.9543 12.5575 14.9543C12.5575 14.9543 12.2805 15.5772 11.9682 16.1117C11.7139 16.5475 11.4821 16.9168 10.9753 16.9168C10.8295 16.9168 10.5984 16.9131 10.4065 16.7537C9.97125 16.3924 9.63844 15.4749 9.70369 14.7643C9.75937 14.1601 9.86597 13.7416 10.0117 13.3924C9.75178 13.5162 9.45131 13.663 9.14531 13.8199L8.67487 14.0622L8.69006 14.0862C9.07922 14.744 9.18309 16.1851 8.33447 17.2913C7.48594 18.398 5.90634 19.0714 4.36734 18.6975C3.87075 18.5766 3.12056 17.679 3.76762 16.4279C4.33837 15.3247 6.61941 14.2816 7.22053 14.0213L7.38553 13.9419C6.18703 13.0257 3.19416 11.7896 2.77472 9.89099C2.65641 9.35652 2.94319 8.07838 4.73934 6.60905C6.25013 5.37358 8.35172 4.42726 10.2931 3.82423C13.5547 2.81124 17.0007 3.40878 17.5309 5.22565C18.0521 7.01246 16.278 9.14977 14.0059 9.9181C11.9772 10.604 10.2999 10.4952 9.61087 10.2975C8.82759 10.0727 8.36822 9.62109 8.25619 9.36618C8.21213 9.26642 8.13638 9.09874 8.25619 9.041C8.32969 9.00553 8.35922 9.01397 8.55591 9.20392C8.74303 9.38429 9.49528 9.8683 10.9243 9.72815C14.6743 9.36086 16.9332 6.8135 16.2194 5.44272C15.7195 4.48321 12.8292 4.05031 9.21816 5.62366C4.81013 7.5439 4.57088 9.12692 4.53309 9.72815C4.42988 11.382 6.86766 12.252 8.18672 13.482L8.23753 13.5307C8.48437 13.4117 8.74509 13.286 9.00084 13.1634C9.66591 12.8441 10.2931 12.5447 10.5853 12.4052C11.0496 11.8156 11.9916 11.165 12.6717 11.165C13.7589 11.165 13.3855 12.5303 13.3855 12.5303C13.3855 12.5303 13.4076 12.4678 13.4371 12.4673C13.468 12.4665 13.5878 12.2874 13.9234 12.3944C14.2686 12.505 14.1901 12.7167 14.1923 12.7383C14.1964 12.7803 13.7844 13.9942 13.6132 14.7727C13.5313 15.1443 13.5788 15.4149 13.6029 15.4149C13.6366 15.4149 13.7054 15.3205 13.7693 15.2189L13.7679 15.2159C13.7679 15.2159 13.816 15.139 13.8966 15.0007L13.9124 14.9718L13.9131 14.9731C14.008 14.8107 14.1413 14.5721 14.2954 14.2763C14.5972 13.6949 15.7491 11.4506 15.8467 11.2023C15.9443 10.954 15.9953 10.6973 16.0434 10.5872C16.0909 10.4772 16.498 10.3943 16.9738 10.3973C17.4497 10.4003 17.498 10.5777 17.5012 10.6143C17.5047 10.651 17.275 11.1434 17.2221 11.4915C17.1698 11.8396 17.2201 12.0132 17.2634 12.3055C17.2916 12.4966 17.4284 12.739 17.5901 13.0137C18.0825 12.3102 18.9488 10.9648 19.0321 10.5878C19.0891 10.33 19.1806 10.0828 19.2288 9.97274C19.2769 9.86273 19.6834 9.77984 20.1592 9.78278C20.635 9.78582 20.6831 9.96315 20.6866 9.99985C20.6901 10.0365 20.4596 10.5289 20.4074 10.877C20.3551 11.2245 20.4054 11.3989 20.4487 11.6911C20.4859 11.9411 20.7072 12.2772 20.9267 12.6595C21.5256 12.4016 22.2305 12.2285 23.0557 12.2249C23.3975 12.2232 23.7943 12.2531 23.9993 12.309V6.55728C23.9993 6.15149 23.7612 5.77757 23.359 5.575L12.6202 0.151986C12.2187 -0.0506621 11.727 -0.0506621 11.3254 0.151986L0.616219 5.57238C0.214594 5.77503 0 6.14961 0 6.55474V17.4054C0 17.8106 0.215906 18.1852 0.616875 18.3877L11.3433 23.8124C11.7448 24.0157 12.2318 24.0157 12.6333 23.8124L23.3646 18.3877C23.7661 18.1845 24 17.8105 24 17.4054V13.0202C23.8638 12.9852 23.6644 12.9576 23.4704 12.9378ZM11.9174 12.3696C11.6871 12.595 11.2944 13.1764 11.1108 13.6629C10.7456 14.629 10.9038 15.6108 11.1623 15.6697C11.4642 15.7388 11.9594 14.4475 12.1965 13.9424C12.3451 13.6261 12.9228 12.2224 12.7962 12.0349C12.6974 11.8882 12.2881 12.0066 11.9174 12.3696ZM16.0952 15.6258C16.0952 15.6258 16.0223 15.686 16.0538 15.7028C16.0965 15.725 16.1887 15.6961 16.2891 15.6504C16.5731 15.4942 17.2105 15.1046 17.2119 14.528C17.2119 14.5112 17.2112 14.495 17.2099 14.4775C17.062 14.6471 16.9258 14.798 16.8082 14.926C16.6074 15.1442 16.0952 15.6258 16.0952 15.6258Z" fill="#0EBFE9"/>
</svg>
