<svg width="24" height="24" viewBox="0 0 24 24" fill="none" xmlns="http://www.w3.org/2000/svg">
<g id="scroll">
<path id="mouse" d="M12 2C15.309 2 18 4.691 18 8V16C18 19.309 15.309 22 12 22C8.691 22 6 19.309 6 16V8C6 4.691 8.691 2 12 2ZM12 0C7.582 0 4 3.582 4 8V16C4 20.418 7.582 24 12 24C16.418 24 20 20.418 20 16V8C20 3.582 16.418 0 12 0Z" fill="white"/>
<path id="scroll-wheel" d="M10.5 8C10.5 8.828 11.171 9.5 12 9.5C12.829 9.5 13.5 8.828 13.5 8C13.5 7.172 12.829 6.5 12 6.5C11.171 6.5 10.5 7.172 10.5 8Z" fill="white"/>
</g>
</svg>
