<svg width="24" height="24" viewBox="0 0 24 24" fill="none" xmlns="http://www.w3.org/2000/svg">
<g clip-path="url(#clip0)">
<path d="M1 1.02783H23V22.972H1V1.02783Z" fill="black"/>
<path d="M0 0.00244141V23.9975H24V0.00244141H0ZM1 1.02787H23V22.9721H1V1.02787Z" fill="white"/>
<path d="M12.3399 16.6143L9.53987 11.0463L12.1799 5.84742C12.2299 5.75513 12.1999 5.6936 12.1199 5.6936H10.5099C10.4111 5.6936 10.3806 5.74363 10.3317 5.82391L10.3299 5.82691C9.71987 7.17021 9.07987 8.53402 8.49987 9.88757H8.47987C7.87987 8.51351 7.23987 7.17021 6.60987 5.8064C6.57987 5.71411 6.52987 5.6936 6.42987 5.6936H4.70987C4.63987 5.6936 4.57987 5.76538 4.63987 5.84742L7.28987 11.2206L4.54987 16.6246C4.49987 16.6861 4.50987 16.7681 4.60987 16.7681H6.26987C6.34987 16.7681 6.39987 16.7374 6.44987 16.6553C7.08987 15.3018 7.74987 13.8047 8.34987 12.4306H8.36987C9.03987 13.8867 9.68987 15.2915 10.3299 16.6451C10.3799 16.7476 10.4299 16.7784 10.5399 16.7784H12.2799C12.3599 16.7784 12.3899 16.6964 12.3399 16.6143Z" fill="white"/>
<path fill-rule="evenodd" clip-rule="evenodd" d="M12.9499 12.7075C12.9499 10.3182 14.4499 8.45198 16.9099 8.45198C17.1199 8.45198 17.2299 8.45198 17.4299 8.47249V5.8064C17.4299 5.74487 17.4799 5.70386 17.5299 5.70386H19.1399C19.2199 5.70386 19.2399 5.73462 19.2399 5.78589V15.1582C19.2399 15.4351 19.2399 15.7837 19.2899 16.1631C19.2899 16.2349 19.2899 16.2452 19.2299 16.2759C18.3899 16.6861 17.5099 16.8707 16.6699 16.8707C14.4999 16.8707 12.9499 15.4966 12.9499 12.7075ZM16.8499 9.97986C17.0899 9.97986 17.2799 10.0106 17.4299 10.0824H17.4199V15.1582C17.2299 15.2403 16.9699 15.271 16.7299 15.271C15.6099 15.271 14.7499 14.5122 14.7499 12.6254C14.7499 10.9745 15.5899 9.97986 16.8499 9.97986Z" fill="white"/>
</g>
<defs>
<clipPath id="clip0">
<rect width="24" height="24" fill="white"/>
</clipPath>
</defs>
</svg>
